<?xml version="1.0" standalone="no"?>
<!DOCTYPE svg PUBLIC "-//W3C//DTD SVG 1.1//EN" "http://www.w3.org/Graphics/SVG/1.1/DTD/svg11.dtd" >
<svg xmlns="http://www.w3.org/2000/svg">
<metadata>Generated by IcoMoon</metadata>
<defs>
<font id="icomoon" horiz-adv-x="1024">
<font-face units-per-em="1024" ascent="960" descent="-64" />
<missing-glyph horiz-adv-x="1024" />
<glyph unicode="&#x20;" horiz-adv-x="512" d="" />
<glyph unicode="&#xe900;" glyph-name="im-chair" horiz-adv-x="936" d="M255.314 347.796c0-5.491 2.745-10.981 8.236-13.727 2.745-2.745 8.236-2.745 10.981-2.745h2.745c63.142 10.981 126.284 19.217 186.681 19.217s123.539-5.491 186.681-19.217c5.491 0 10.981 0 13.727 2.745 5.491 2.745 8.236 8.236 8.236 13.727 24.708 205.898 71.378 549.062 74.123 551.807 0 8.236-5.491 19.217-13.727 21.962-90.595 24.708-181.19 38.434-269.040 38.434s-178.445-13.727-269.040-38.434c-8.236-2.745-13.727-10.981-13.727-19.217l74.123-554.552zM864.772 586.638h-79.614c-16.472 0-30.198-10.981-32.944-27.453-5.491-27.453 19.217-38.434 35.689-43.925 0 0 2.745 0 2.745-2.745 2.745-118.048-49.416-181.19-82.359-208.643-8.236 8.236-19.217 10.981-30.198 10.981h-428.268c-10.981 0-21.962-5.491-30.198-10.981-32.944 27.453-85.105 87.85-82.359 208.643 0 0 2.745 0 2.745 2.745 16.472 8.236 41.18 16.472 35.689 43.925-2.745 16.472-16.472 27.453-32.944 27.453h-79.614c-32.944 0-63.142-27.453-63.142-63.142v-16.472c0-10.981 5.491-21.962 13.727-27.453 5.491-2.745 13.727-5.491 19.217-5.491 2.745 0 8.236 0 10.981 2.745 0 0 10.981 2.745 24.708 8.236 2.745-93.34 38.434-156.483 68.633-192.172 24.708-30.198 49.416-49.416 65.887-57.651v-19.217c0-27.453 21.962-46.67 46.67-46.67h170.209v-68.633c-63.142-2.745-126.284-10.981-189.426-24.708v0c-38.434-8.236-60.397-38.434-60.397-76.869 0-24.708 19.217-43.925 43.925-43.925 21.962 0 41.18 16.472 43.925 38.434 54.906 10.981 112.558 19.217 167.464 21.962v-35.689c0-24.708 19.217-43.925 43.925-43.925s43.925 19.217 43.925 43.925v35.689c54.906-2.745 109.812-10.981 167.464-21.962 2.745-21.962 19.217-38.434 43.925-38.434s43.925 19.217 43.925 43.925c0 38.434-24.708 71.378-63.142 76.869-63.142 13.727-126.284 21.962-189.426 24.708v65.887h170.209c27.453 0 46.67 21.962 46.67 46.67v19.217c16.472 10.981 41.18 27.453 65.887 57.651 30.198 38.434 63.142 98.831 68.633 192.172 13.727-5.491 24.708-8.236 24.708-8.236 2.745 0 8.236-2.745 10.981-2.745 5.491 0 13.727 2.745 19.217 5.491 8.236 5.491 13.727 16.472 13.727 27.453v16.472c-10.981 35.689-38.434 65.887-71.378 65.887v0z" />
<glyph unicode="&#xe901;" glyph-name="im-info" d="M512 960c-280.459 0-512-228.28-512-512s228.28-512 512-512c280.459 0 512 228.28 512 512s-231.541 512-512 512v0zM512 30.573c-231.541 0-417.427 185.885-417.427 417.427s185.885 417.427 417.427 417.427 417.427-185.885 417.427-417.427-189.146-417.427-417.427-417.427v0zM512 741.503c-32.611 0-61.962-29.35-61.962-61.962s29.35-61.962 61.962-61.962 61.962 29.35 61.962 61.962c0 35.873-29.35 61.962-61.962 61.962v0zM512 526.268c-26.089 0-45.656-19.567-45.656-45.656v-277.197c0-26.089 19.567-45.656 45.656-45.656s45.656 19.567 45.656 45.656v277.197c0 22.828-19.567 45.656-45.656 45.656v0z" />
<glyph unicode="&#xe902;" glyph-name="im-bath" horiz-adv-x="1515" d="M1445.084 484.685h-12.76v350.903c0 66.991-54.231 124.411-118.031 124.411-57.421 0-124.411-38.28-156.312-92.511l-44.66-73.371-12.76 6.38c-12.76 6.38-31.9 3.19-41.47-6.38l-66.991-70.181c-9.57-9.57-9.57-25.52 6.38-35.090l153.121-86.131c12.76-6.38 28.71-3.19 35.090 12.76l38.28 82.941c6.38 12.76 0 31.9-12.76 38.28l-25.52 12.76 41.47 73.371c15.95 25.52 54.231 51.040 82.941 51.040 19.14 0 35.090-19.14 35.090-41.47v-350.903h-1276.012c-38.28 0-70.181-31.9-70.181-70.181s31.9-70.181 70.181-70.181h1374.903c38.28 0 70.181 31.9 70.181 70.181s-31.9 73.371-70.181 73.371v0zM1390.854 302.854h-1228.162c-19.14 0-31.9-6.38-38.28-19.14s-3.19-25.52 6.38-38.28c38.28-44.66 105.271-108.461 229.682-156.312l-22.33-105.271c-6.38-22.33 9.57-44.66 31.9-47.85 3.19 0 6.38 0 9.57 0 19.14 0 35.090 12.76 41.47 31.9l22.33 98.891c86.131-22.33 188.212-38.28 319.003-38.28 191.402 0 331.763 31.9 437.034 73.371l28.71-133.981c3.19-19.14 22.33-31.9 41.47-31.9 3.19 0 6.38 0 9.57 0 22.33 6.38 35.090 25.52 31.9 47.85l-31.9 140.361c0 3.19-3.19 6.38-3.19 12.76 70.181 38.28 118.031 79.751 146.741 111.651 12.76 12.76 15.95 25.52 9.57 38.28-9.57 9.57-25.52 15.95-41.47 15.95v0z" />
<glyph unicode="&#xe903;" glyph-name="im-bed" horiz-adv-x="1675" d="M1539.765 203.294v-267.294h135.529v402.824h-1539.765v549.647c0 18.824-7.529 33.882-18.824 48.941s-30.118 22.588-48.941 22.588-33.882-7.529-48.941-22.588c-11.294-15.059-18.824-30.118-18.824-48.941v-952.471h135.529v267.294h1404.235zM346.353 613.647c33.882 0 64 11.294 86.588 37.647s37.647 52.706 37.647 86.588-11.294 64-37.647 86.588c-26.353 22.588-52.706 37.647-86.588 37.647s-64-11.294-86.588-37.647c-22.588-22.588-37.647-52.706-37.647-86.588s11.294-64 37.647-86.588 52.706-37.647 86.588-37.647v0zM1675.294 440.471v161.882c0 26.353-7.529 48.941-26.353 64s-41.412 26.353-71.529 30.118l-978.824 94.118c-18.824 0-33.882-7.529-45.176-18.824s-18.824-26.353-18.824-45.176v-188.235h-248.471c-41.412 0-64-15.059-64-48.941s22.588-48.941 64-48.941h1389.176z" />
<glyph unicode="&#xe904;" glyph-name="im-buildings" horiz-adv-x="1264" d="M341.333-64h223.179v229.744h134.564v-229.744h223.179v1024h-580.923v-1024zM672.821 841.846h134.564v-134.564h-134.564v134.564zM672.821 625.231h134.564v-134.564h-134.564v134.564zM672.821 408.615h134.564v-134.564h-134.564v134.564zM456.205 841.846h134.564v-134.564h-134.564v134.564zM456.205 625.231h134.564v-134.564h-134.564v134.564zM456.205 408.615h134.564v-134.564h-134.564v134.564zM974.769 868.103v-725.333h85.333v-206.769h203.487v932.103h-288.821zM1161.846 244.513h-121.436v121.436h121.436v-121.436zM1161.846 441.436h-121.436v121.436h121.436v-121.436zM1161.846 638.359h-121.436v121.436h121.436v-121.436zM0-64h203.487v206.769h85.333v725.333h-288.821c0 0 0-932.103 0-932.103zM105.026 759.795h121.436v-121.436h-121.436v121.436zM105.026 562.872h121.436v-121.436h-121.436v121.436zM105.026 365.949h121.436v-121.436h-121.436v121.436z" />
<glyph unicode="&#xe905;" glyph-name="im-camera" horiz-adv-x="1166" d="M1096.869 518.951l-218.607-145.738c0 46.022-19.176 84.375-49.858 111.221 72.869 46.022 122.727 126.562 122.727 218.607 0 141.903-115.056 256.959-256.959 256.959s-256.959-115.056-256.959-256.959c0-72.869 30.682-134.232 76.704-184.090h-134.232c34.517 38.352 57.528 88.21 57.528 145.738 0 118.891-99.715 218.607-218.607 218.607-122.727 0-218.607-99.715-218.607-218.607 0-65.199 30.682-122.727 76.704-164.914-46.022-26.846-76.704-72.869-76.704-126.562v-291.476c0-80.539 65.199-145.738 145.738-145.738h582.951c80.539 0 145.738 65.199 145.738 145.738v38.352l218.607-184.090c42.187 0 72.869 30.682 72.869 72.869v437.213c3.835 42.187-26.846 72.869-69.034 72.869v0zM76.704 664.689c0 80.539 65.199 145.738 145.738 145.738s145.738-65.199 145.738-145.738-65.199-145.738-145.738-145.738c-80.539 0-145.738 65.199-145.738 145.738v0zM805.393 81.738c0-42.187-34.517-72.869-72.869-72.869h-582.951c-42.187 0-72.869 34.517-72.869 72.869v291.476c0 42.187 30.682 72.869 72.869 72.869h582.951c42.187 0 72.869-34.517 72.869-72.869v-291.476zM698.007 518.951c-99.715 0-184.090 80.539-184.090 184.090 0 99.715 80.539 184.090 184.090 184.090 99.715 0 184.090-80.539 184.090-184.090-3.835-103.551-84.375-184.090-184.090-184.090v0zM1096.869 8.869l-218.607 184.090v111.221l218.607 145.738v-441.049z" />
<glyph unicode="&#xe906;" glyph-name="im-comment" horiz-adv-x="1215" d="M688.042 94.572c-91.381 75.255-190.824 123.633-209.638 134.383-2.688 0-2.688 2.688-2.688 5.375v142.446c18.814 10.751 29.564 32.252 29.564 56.441v147.822c0 72.567-59.129 131.696-131.696 131.696h-32.252c-72.567 0-131.696-59.129-131.696-131.696v-147.822c0-24.189 10.751-43.003 29.564-56.441v-142.446c0-2.688-2.688-5.375-2.688-5.375-21.501-10.751-118.257-59.129-209.638-134.383-16.126-13.438-26.877-34.94-26.877-56.441v-102.131h717.606v102.131c-5.375 21.501-13.438 43.003-29.564 56.441v0zM1147.633 960h-524.094c-37.627 0-69.879-29.564-69.879-69.879v-317.144c0-37.627 29.564-69.879 69.879-69.879h16.126v-110.194c0-8.063 10.751-13.438 16.126-8.063l118.257 118.257h373.585c37.627 0 67.192 29.564 67.192 69.879v317.144c2.688 37.627-29.564 69.879-67.192 69.879z" />
<glyph unicode="&#xe907;" glyph-name="im-download" horiz-adv-x="962" d="M425.444 176.596v0c5.868-5.868 8.802-8.802 11.736-11.736 2.934 0 2.934-2.934 5.868-2.934h2.934c2.934 0 2.934-2.934 5.868-2.934s5.868-2.934 5.868-2.934h2.934c2.934 0 2.934 0 5.868-2.934 5.868 0 11.736-2.934 17.605-2.934s11.736 0 17.605 2.934c2.934 0 2.934 0 5.868 2.934h2.934c2.934 0 5.868 0 8.802 2.934 2.934 0 5.868 2.934 5.868 2.934h2.934c2.934 0 2.934 2.934 5.868 2.934 2.934 2.934 5.868 5.868 11.736 8.802l208.321 208.321c17.605 17.605 26.407 38.143 26.407 61.616s-8.802 44.011-26.407 61.616c-17.605 17.605-38.143 26.407-61.616 26.407s-44.011-8.802-61.616-26.407l-58.682-58.682v428.378c0 46.946-38.143 85.089-85.089 85.089s-85.089-38.143-85.089-85.089v-428.378l-58.682 58.682c-17.605 17.605-38.143 26.407-61.616 26.407s-44.011-8.802-61.616-26.407c-17.605-17.605-26.407-38.143-26.407-61.616s8.802-44.011 26.407-61.616l205.387-205.387zM246.464 475.874c8.802 8.802 20.539 14.67 35.209 14.67 11.736 0 23.473-5.868 35.209-14.67l123.232-123.232v522.269c0 26.407 20.539 46.946 46.946 46.946s46.946-20.539 46.946-46.946v-522.269l123.232 123.232c8.802 8.802 20.539 14.67 35.209 14.67 11.736 0 23.473-5.868 35.209-14.67 17.605-17.605 17.605-49.88 0-67.484l-202.453-202.453h-2.934c-2.934-2.934-2.934-2.934-8.802-5.868l-2.934-2.934h-5.868l-5.868-2.934c-2.934 0-5.868 0-8.802 0s-5.868 0-11.736 0h-11.736l-5.868 2.934c-2.934 2.934-5.868 2.934-5.868 5.868l-205.387 205.387c-20.539 17.605-20.539 49.88-2.934 67.484zM906.636 552.16v-560.413h-853.822v560.413h-52.814v-616.16h46.946l5.868 2.934h853.822v-2.934h49.88l5.868 2.934v613.226z" />
<glyph unicode="&#xe908;" glyph-name="im-expand" horiz-adv-x="1029" d="M4.947 940.213c0 0 0 19.787 19.787 19.787 29.681 0 257.237-34.628 257.237-34.628s34.628 0 9.894-24.734-59.362-59.362-59.362-59.362 9.894-9.894 24.734-24.734c49.469-49.469 143.459-143.459 178.087-178.087 0 0 9.894-9.894 0-19.787s-79.15-79.15-93.99-93.99c-14.841-14.841-24.734-4.947-24.734-4.947l-178.087 178.087c-19.787 19.787-29.681 29.681-29.681 29.681s-44.522-44.522-64.309-64.309c-19.787-19.787-19.787 14.841-19.787 14.841l-19.787 262.184zM1028.947-44.213c0 0 0-19.787-19.787-19.787-29.681 0-257.237 34.628-257.237 34.628s-34.628 0-9.894 24.734 59.362 59.362 59.362 59.362-9.894 9.894-24.734 24.734c-49.469 49.469-143.459 143.459-178.087 178.087 0 0-9.894 9.894 0 19.787s79.15 79.15 93.99 93.99 19.787 4.947 19.787 4.947c39.575-34.628 128.618-128.618 178.087-178.087 19.787-19.787 29.681-29.681 29.681-29.681s44.522 44.522 64.309 64.309 19.787-14.841 19.787-14.841l24.734-262.184zM19.787-59.053c0 0-19.787 0-19.787 19.787 0 29.681 34.628 257.237 34.628 257.237s0 34.628 24.734 9.894 59.362-59.362 59.362-59.362 9.894 9.894 24.734 24.734c49.469 49.469 143.459 143.459 178.087 178.087 0 0 9.894 9.894 19.787 0s79.15-79.15 93.99-93.99 4.947-24.734 4.947-24.734c-39.575-34.628-128.618-128.618-178.087-178.087-19.787-14.841-29.681-29.681-29.681-29.681s44.522-44.522 64.309-64.309c19.787-19.787-14.841-19.787-14.841-19.787l-262.184-19.787zM1004.213 960c0 0 19.787 0 19.787-19.787 0-29.681-34.628-257.237-34.628-257.237s0-34.628-24.734-9.894-59.362 59.362-59.362 59.362-9.894-9.894-24.734-24.734c-49.469-49.469-143.459-143.459-178.087-178.087 0 0-9.894-9.894-19.787 0s-79.15 79.15-93.99 93.99-4.947 24.734-4.947 24.734c34.628 34.628 128.618 128.618 178.087 178.087 19.787 19.787 29.681 29.681 29.681 29.681s-44.522 44.522-64.309 64.309 14.841 19.787 14.841 19.787l262.184 19.787z" />
<glyph unicode="&#xe909;" glyph-name="im-garage" horiz-adv-x="990" d="M964.923 673.055l-413.538 270.066c-33.758 22.505-78.769 22.505-112.527 0l-413.538-270.066c-25.319-16.879-33.758-50.637-16.879-75.956s50.637-33.758 75.956-16.879l407.912 267.253 407.912-267.253c8.44-5.626 19.692-8.44 30.945-8.44 16.879 0 36.571 8.44 47.824 25.319 19.692 22.505 11.253 59.077-14.066 75.956v0zM860.835 335.473c-2.813 19.692-19.692 33.758-39.385 33.758h-22.505l-8.44 90.022c-8.44 95.648-90.022 168.791-185.67 168.791h-216.615c-95.648 0-177.231-73.143-185.67-168.791l-8.44-90.022h-22.505c-19.692 0-36.571-14.066-39.385-33.758l-33.758-191.297c-2.813-22.505 2.813-47.824 16.879-67.516 14.066-16.879 36.571-28.132 59.077-28.132v-30.945c0-45.011 36.571-81.582 81.582-81.582h25.319c45.011 0 81.582 36.571 81.582 81.582v30.945h264.44v-30.945c0-45.011 36.571-81.582 81.582-81.582h25.319c45.011 0 81.582 36.571 81.582 81.582v30.945c22.505 0 45.011 11.253 59.077 28.132 16.879 19.692 22.505 42.198 16.879 67.516l-30.945 191.297zM247.56 121.67c-36.571 0-67.516 30.945-67.516 67.516 0 39.385 30.945 67.516 67.516 67.516 39.385 0 67.516-30.945 67.516-67.516 2.813-36.571-28.132-67.516-67.516-67.516v0zM264.44 369.231l8.44 81.582c5.626 59.077 56.264 106.901 115.341 106.901h11.253v-25.319c0-22.505 16.879-39.385 39.385-39.385h109.714c22.505 0 39.385 16.879 39.385 39.385v25.319h11.253c59.077 0 109.714-45.011 115.341-106.901l8.44-81.582h-458.549zM745.495 121.67c-36.571 0-67.516 30.945-67.516 67.516 0 39.385 30.945 67.516 67.516 67.516 39.385 0 67.516-30.945 67.516-67.516 2.813-36.571-28.132-67.516-67.516-67.516v0z" />
<glyph unicode="&#xe90a;" glyph-name="im-giftkey" horiz-adv-x="772" d="M456.501 569.16l-110.998-175.096-20.324 12.507 110.998 175.096-231.377 145.392-110.998-176.66 168.843-106.308c1.563-1.563 4.69-4.69 6.253-6.253l-268.898-429.924c-1.563-3.127 0-70.351 7.817-71.915 6.253-1.563 117.252 12.507 117.252 12.507s-1.563 26.577 4.69 34.394c10.944 12.507 26.577 18.76 32.831 29.704 15.634 26.577-1.563 50.027 4.69 60.971 4.69 7.817 53.154 32.831 53.154 32.831l17.197 64.098c0 0 23.45 21.887 35.957 35.957 14.070 14.070 4.69 32.831 12.507 46.901 10.944 20.324 40.647 31.267 40.647 31.267l14.070 53.154c0 0 26.577 14.070 40.647 31.267 1.563 0 4.69-1.563 6.253-1.563l167.279-104.745 110.998 176.66-209.49 129.759zM34.394-18.663c-1.563 1.563-3.127 3.127-3.127 4.69s0 4.69 1.563 6.253l253.264 411.163c3.127 4.69 7.817 6.253 10.944 4.69 1.563-1.563 3.127-3.127 3.127-4.69s0-4.69-1.563-6.253l-253.264-411.163c-3.127-4.69-7.817-6.253-10.944-4.69zM723.835 748.947c12.507 3.127 20.324 6.253 23.45 7.817l-15.634 20.324c-9.38-6.253-18.76-12.507-26.577-17.197-18.76-10.944-32.831-17.197-43.774-17.197-10.944-1.563-21.887 0-32.831 1.563 0 0 0 0-1.563 0-3.127 0-6.253 1.563-10.944 1.563-18.76 3.127-35.957 10.944-51.591 21.887v0c15.634-4.69 35.957-6.253 64.098-4.69 0 0 0 0 1.563 0h1.563c4.69 0 7.817 0 12.507 1.563v0c17.197 1.563 29.704 4.69 37.521 10.944 4.69 3.127 7.817 4.69 9.38 7.817 6.253 10.944 7.817 23.45 3.127 35.957-1.563 4.69-4.69 9.38-7.817 14.070-4.69 4.69-9.38 9.38-15.634 14.070-4.69 3.127-10.944 4.69-15.634 6.253-10.944 3.127-23.45 0-37.521-6.253-7.817-4.69-14.070-9.38-21.887-15.634l-1.563-1.563c0 0 0 0-1.563-1.563-6.253-6.253-12.507-12.507-17.197-20.324 3.127 7.817 4.69 17.197 6.253 25.014 0 1.563 0 3.127 0 4.69 1.563 9.38 1.563 17.197 0 26.577-1.563 14.070-4.69 25.014-9.38 34.394-3.127 6.253-7.817 10.944-14.070 14.070 0 0-1.563 0-1.563 1.563-21.887 12.507-39.084 10.944-50.027-7.817-3.127-4.69-3.127-10.944-1.563-20.324s4.69-20.324 10.944-32.831c0-1.563 1.563-1.563 1.563-3.127 1.563-1.563 1.563-4.69 3.127-6.253 3.127-4.69 4.69-10.944 7.817-15.634 7.817-15.634 17.197-32.831 25.014-48.464-9.38 10.944-21.887 25.014-35.957 42.211v0c-1.563 3.127-4.69 4.69-6.253 7.817-1.563 1.563-3.127 3.127-4.69 4.69v0c-10.944 12.507-23.45 28.14-35.957 43.774-7.817 10.944-12.507 23.45-15.634 40.647v0 1.563c0 6.253-1.563 14.070-1.563 20.324l-18.76-10.944-12.507-6.253c6.253-17.197 15.634-34.394 26.577-50.027 7.817-10.944 18.76-21.887 29.704-32.831 7.817-6.253 14.070-14.070 21.887-20.324 1.563 0 1.563-1.563 3.127-1.563 1.563-1.563 4.69-3.127 6.253-6.253 14.070-12.507 29.704-26.577 43.774-39.084l-186.040 117.252 37.521 4.69 26.577-15.634c-3.127 6.253-7.817 15.634-12.507 28.14-3.127 6.253-6.253 14.070-10.944 21.887l15.634 9.38 21.887 12.507 14.070 7.817c1.563-7.817 3.127-15.634 4.69-23.45 1.563-9.38 3.127-18.76 4.69-26.577 0-1.563 0-3.127 0-4.69 4.69-18.76 14.070-34.394 28.14-46.901-6.253 12.507-7.817 25.014-6.253 35.957 1.563 6.253 3.127 12.507 6.253 17.197 7.817 12.507 17.197 18.76 31.267 20.324 12.507 1.563 23.45-1.563 35.957-9.38 1.563 0 1.563-1.563 3.127-1.563 6.253-4.69 10.944-9.38 15.634-17.197 9.38-17.197 10.944-40.647 4.69-70.351 0-1.563 0-1.563 0-3.127v0 0l1.563 1.563c4.69 4.69 10.944 9.38 15.634 14.070 17.197 12.507 34.394 18.76 48.464 17.197 7.817-1.563 14.070-3.127 21.887-7.817 4.69-3.127 7.817-6.253 10.944-9.38 7.817-7.817 14.070-15.634 18.76-26.577 6.253-15.634 4.69-31.267-4.69-43.774-1.563-3.127-4.69-6.253-7.817-9.38-10.944-9.38-29.704-12.507-54.718-10.944v0c-3.127 0-6.253 0-9.38 0 0 0-1.563 0-3.127 0v0c-1.563 0-3.127 0-4.69 0 1.563 0 3.127-1.563 4.69-1.563s1.563-1.563 3.127-1.563 4.69-1.563 6.253-1.563c15.634-4.69 31.267-3.127 45.337 4.69 1.563 0 6.253 3.127 12.507 9.38 7.817 6.253 20.324 15.634 37.521 26.577l20.324-29.704 9.38-12.507-21.887-6.253-6.253-1.563-57.844-17.197 70.351-43.774 12.507-34.394-145.392 90.675c3.127-1.563 7.817-3.127 12.507-3.127v0 0c14.070-3.127 29.704-3.127 45.337-1.563 4.69 0 17.197 4.69 39.084 10.944 6.253 3.127 10.944 4.69 15.634 6.253zM772.299 601.991l-93.802-150.082-211.053 132.885 90.675 143.829c1.563 7.817 3.127 15.634 4.69 23.45l201.673-126.632 7.817-23.45zM539.359 745.82l-92.238-148.519-231.377 145.392 90.675 143.829 37.521 4.69 203.237-128.195zM559.682 803.664c-6.253 7.817-10.944 17.197-15.634 29.704-1.563 6.253-4.69 10.944-6.253 17.197s-3.127 12.507-4.69 17.197v0 1.563c-1.563 6.253-1.563 10.944-1.563 15.634 0 6.253 1.563 10.944 3.127 14.070 3.127 4.69 7.817 7.817 12.507 7.817 3.127 0 7.817-1.563 10.944-4.69 3.127-1.563 4.69-4.69 7.817-7.817 4.69-7.817 6.253-21.887 4.69-39.084 0-3.127 0-6.253-1.563-10.944 0-3.127-1.563-6.253-1.563-10.944-1.563-7.817-4.69-18.76-7.817-29.704zM676.934 800.537c-1.563-3.127-4.69-4.69-9.38-6.253-3.127-1.563-6.253-1.563-9.38-3.127-4.69-1.563-10.944-1.563-17.197-1.563-4.69 0-9.38 0-15.634 0-14.070 0-29.704 1.563-48.464 4.69 6.253 9.38 15.634 20.324 28.14 28.14l1.563 1.563c3.127 1.563 4.69 3.127 7.817 4.69 15.634 9.38 28.14 14.070 39.084 12.507 3.127 0 6.253-1.563 7.817-3.127 4.69-3.127 9.38-9.38 14.070-17.197 1.563-3.127 3.127-6.253 3.127-9.38v0c1.563-4.69 0-9.38-1.563-10.944z" />
<glyph unicode="&#xe90b;" glyph-name="im-heart" horiz-adv-x="1107" d="M817.292 960c-117.665 0-216.248-95.404-263.95-193.988-47.702 98.584-146.286 193.988-263.95 193.988-159.006 0-289.391-130.385-289.391-289.391 0-324.373 327.553-410.236 553.342-734.609 213.068 321.193 553.342 416.596 553.342 734.609 0 159.006-130.385 289.391-289.391 289.391v0z" />
<glyph unicode="&#xe90c;" glyph-name="im-horn" horiz-adv-x="1496" d="M1001.092 678.228v247.409c0 13.745-6.872 25.199-18.327 29.781-11.454 6.872-25.199 4.582-34.362-2.291-245.119-169.521-384.859-190.139-481.074-190.139h-272.609c-107.669 0-194.72-87.051-194.72-194.72v-73.306c0-107.669 87.051-194.72 194.72-194.72h130.577l142.031-343.624c4.582-13.745 18.327-20.617 32.072-20.617 4.582 0 9.163 0 13.745 2.291 18.327 6.872 25.199 27.49 18.327 43.526l-130.577 316.134h66.434c332.17 0 467.329-176.394 471.911-183.266 6.872-9.163 16.036-13.745 27.49-13.745 4.582 0 6.872 0 11.454 2.291 13.745 4.582 22.908 18.327 22.908 32.072v245.119c68.725 16.036 119.123 75.597 119.123 148.904s-52.689 135.159-119.123 148.904v0zM68.725 494.962v73.306c0 71.016 57.271 125.996 125.996 125.996h119.123v-325.298h-119.123c-68.725 0-125.996 54.98-125.996 125.996v0zM932.367 217.772c-75.597 61.852-224.501 148.904-465.038 148.904h-84.761v325.298h84.761c98.506 0 238.246 20.617 465.038 167.23v-641.432zM1001.092 453.727v153.485c29.781-13.745 50.398-43.526 50.398-77.888 0-32.072-20.617-61.852-50.398-75.597v0zM1454.676 582.013h-155.776c-22.908 0-41.235-18.327-41.235-41.235s18.327-41.235 41.235-41.235h155.776c22.908 0 41.235 18.327 41.235 41.235-2.291 22.908-20.617 41.235-41.235 41.235v0zM1241.629 666.774c6.872-16.036 20.617-25.199 36.653-25.199 4.582 0 9.163 0 13.745 2.291l151.195 59.562c20.617 9.163 29.781 32.072 22.908 52.689-9.163 20.617-32.072 29.781-52.689 22.908l-151.195-59.562c-18.327-9.163-29.781-32.072-20.617-52.689v0zM1445.512 380.421l-151.195 59.562c-20.617 9.163-43.526-2.291-52.689-22.908s2.291-43.526 22.908-52.689l151.195-59.562c4.582-2.291 9.163-2.291 13.745-2.291 16.036 0 32.072 9.163 36.653 25.199 9.163 20.617 0 43.526-20.617 52.689v0z" />
<glyph unicode="&#xe90d;" glyph-name="im-housekey" horiz-adv-x="1065" d="M469.333 475.307l-3.413 3.413-453.973-453.973c-3.413-3.413-6.827-8.533-6.827-13.653l-5.12-40.96c0-1.707 0-3.413 0-6.827 259.413 257.707 465.92 459.093 469.333 455.68s-197.973-211.627-459.093-472.747c3.413-1.707 6.827-3.413 10.24-3.413l128-6.827c10.24 0 18.773 5.12 22.187 15.36l22.187 61.44 23.893-3.413c6.827-1.707 15.36 1.707 20.48 6.827 1.707 1.707 3.413 3.413 3.413 5.12l39.253 75.093 51.2 17.067c10.24 3.413 17.067 13.653 15.36 23.893l-3.413 35.84 35.84-3.413c8.533 0 15.36 3.413 20.48 10.24l46.080 66.56 32.427 13.653c6.827 1.707 10.24 6.827 13.653 13.653l20.48 56.32 20.48-5.12c8.533-1.707 15.36 0 20.48 6.827l27.307 27.307-3.413 3.413-107.52 112.64zM1064.96 517.973l-47.787 380.587c-1.707 15.36-13.653 25.6-27.307 27.307l-365.227 34.133c-13.653 1.707-25.6-5.12-30.72-17.067s-3.413-25.6 6.827-35.84l30.72-30.72-237.227-237.227c-11.947-11.947-11.947-32.427 0-44.373l312.32-312.32c11.947-11.947 32.427-11.947 44.373 0l235.52 235.52 27.307-27.307c10.24-10.24 23.893-11.947 35.84-6.827 10.24 8.533 17.067 20.48 15.36 34.133zM718.507 738.133l51.2-51.2-78.507-78.507-51.2 51.2 78.507 78.507zM593.92 511.147l-51.2 51.2 78.507 78.507 51.2-51.2-78.507-78.507zM663.893 441.173l-51.2 51.2 78.507 78.507 51.2-51.2-78.507-78.507zM761.173 538.453l-51.2 51.2 78.507 78.507 51.2-51.2-78.507-78.507z" />
<glyph unicode="&#xe90e;" glyph-name="im-list" horiz-adv-x="790" d="M343.852 585.919h279.616c37.786 0 37.786 56.679 0 56.679h-279.616c-34.007 0-34.007-56.679 0-56.679v0zM623.469 483.897h-279.616c-37.786 0-37.786-56.679 0-56.679h279.616c37.786 0 37.786 56.679 0 56.679v0zM623.469 336.531h-279.616c-37.786 0-37.786-56.679 0-56.679h279.616c37.786 0 37.786 56.679 0 56.679v0zM623.469 181.609h-279.616c-37.786 0-37.786-56.679 0-56.679h279.616c37.786 0 37.786 56.679 0 56.679v0zM222.937 676.605l-7.557-11.336c-11.336-15.114-18.893-30.229-30.229-45.343v0l-3.779 7.557c-11.336 11.336-30.229 7.557-34.007-7.557-3.779-7.557-3.779-15.114 3.779-22.672l3.779-7.557c7.557-7.557 15.114-15.114 22.672-26.45 3.779-3.779 7.557-7.557 15.114-7.557s18.893 7.557 18.893 15.114c7.557 22.672 22.672 41.565 37.786 64.236 3.779 3.779 7.557 7.557 11.336 15.114s3.779 15.114 0 22.672c-7.557 11.336-30.229 15.114-37.786 3.779v0zM207.823 521.683l-7.557-11.336c-11.336-15.114-18.893-30.229-30.229-45.343v0l-3.779 7.557c-11.336 11.336-30.229 7.557-34.007-7.557-3.779-7.557-3.779-15.114 3.779-22.672l3.779-7.557c7.557-7.557 15.114-15.114 22.672-26.45 3.779-3.779 7.557-7.557 15.114-7.557s18.893 7.557 18.893 15.114c7.557 22.672 22.672 41.565 37.786 64.236 3.779 3.779 7.557 7.557 11.336 15.114s3.779 15.114 0 22.672c-7.557 15.114-30.229 15.114-37.786 3.779v0zM207.823 362.982l-7.557-11.336c-11.336-15.114-18.893-30.229-30.229-45.343v0l-3.779 7.557c-11.336 11.336-30.229 7.557-34.007-7.557-3.779-7.557-3.779-15.114 3.779-22.672l3.779-7.557c7.557-7.557 15.114-15.114 22.672-26.45 3.779-3.779 7.557-7.557 15.114-7.557s18.893 7.557 18.893 15.114c7.557 22.672 22.672 41.565 37.786 64.236 3.779 3.779 7.557 7.557 11.336 15.114s3.779 15.114 0 22.672c-7.557 15.114-30.229 15.114-37.786 3.779v0zM207.823 200.502l-7.557-11.336c-11.336-15.114-18.893-30.229-30.229-45.343v0l-3.779 7.557c-11.336 11.336-30.229 7.557-34.007-7.557-3.779-7.557-3.779-15.114 3.779-22.672l3.779-7.557c7.557-7.557 15.114-15.114 22.672-26.45 3.779-3.779 7.557-7.557 15.114-7.557s18.893 7.557 18.893 15.114c7.557 22.672 22.672 41.565 37.786 64.236 3.779 3.779 7.557 7.557 11.336 15.114s3.779 15.114 0 22.672c-7.557 15.114-30.229 15.114-37.786 3.779v0zM642.362 960h-642.362v-1024h789.727v880.413l-147.365 143.587zM721.712 7.793h-649.919v887.97h536.561v-109.579h113.358v-778.391z" />
<glyph unicode="&#xe90f;" glyph-name="im-location" horiz-adv-x="641" d="M320.358 960c-177.341 0-320.358-143.017-320.358-320.358 0-320.358 320.358-703.642 320.358-703.642s320.358 383.285 320.358 703.642c-2.86 177.341-145.877 320.358-320.358 320.358zM320.358 448c-105.832 0-191.642 85.81-191.642 191.642s85.81 191.642 191.642 191.642 191.642-85.81 191.642-191.642-85.81-191.642-191.642-191.642z" />
<glyph unicode="&#xe910;" glyph-name="im-mail" horiz-adv-x="1534" d="M769.080 346.464v0c12.962 0 21.603 4.321 34.565 8.641h4.321l30.245 25.924 695.629 574.65c0 0-4.321 4.321-8.641 4.321h-1516.557l730.194-600.574c4.321-8.641 17.283-12.962 30.245-12.962v0zM0 877.907v-851.173l522.802 423.426-522.802 427.747zM1011.038 445.84l522.802-419.105v846.852l-522.802-427.747zM846.852 307.578c-21.603-17.283-47.527-25.924-77.772-25.924s-56.169 8.641-77.772 25.924l-120.979 99.376-570.329-462.312c0-4.321 4.321-8.641 8.641-8.641h1512.236c4.321 0 8.641 4.321 8.641 8.641v0l-566.008 462.312-116.658-99.376z" />
<glyph unicode="&#xe911;" glyph-name="im-map" horiz-adv-x="1055" d="M654.991 634.042c0 70.727-55.351 126.078-126.078 126.078s-126.078-55.351-126.078-126.078 55.351-126.078 126.078-126.078c70.727 0 126.078 58.426 126.078 126.078zM605.79 634.042c0-43.051-33.826-76.877-76.877-76.877s-76.877 33.826-76.877 76.877 33.826 76.877 76.877 76.877 76.877-33.826 76.877-76.877zM861.021 338.835h-110.703l43.051 61.502c98.402 132.228 86.102 350.559-30.751 464.336-61.502 61.502-144.529 95.327-233.706 95.327s-172.204-33.826-233.706-95.327c-116.853-116.853-129.153-332.108-30.751-464.336l43.051-61.502h-116.853l-190.655-402.835h1054.751l-193.73 402.835zM338.258 289.634l187.58-270.607 187.58 270.607h113.778l144.529-304.432h-897.922l144.529 304.432h119.928zM301.357 431.087c-86.102 113.778-73.802 301.357 27.676 399.76 52.276 52.276 123.003 83.027 199.88 83.027 73.802 0 144.529-30.751 199.88-83.027 98.402-98.402 110.703-285.982 24.601-399.76l-224.48-325.958-227.556 325.958z" />
<glyph unicode="&#xe912;" glyph-name="im-nav" horiz-adv-x="1351" d="M1351.111 846.222c0 60.444-49.778 113.778-113.778 113.778h-1123.556c-64 0-113.778-49.778-113.778-113.778 0-60.444 49.778-113.778 113.778-113.778h1123.556c64 3.556 113.778 53.333 113.778 113.778v0zM1351.111 448c0 60.444-49.778 113.778-113.778 113.778h-1123.556c-64 0-113.778-49.778-113.778-113.778 0-60.444 49.778-113.778 113.778-113.778h1123.556c64 3.556 113.778 53.333 113.778 113.778v0zM1351.111 49.778c0 60.444-49.778 113.778-113.778 113.778h-1123.556c-64 0-113.778-49.778-113.778-113.778 0-60.444 49.778-113.778 113.778-113.778h1123.556c64 3.556 113.778 53.333 113.778 113.778v0z" />
<glyph unicode="&#xe913;" glyph-name="im-off" horiz-adv-x="1362" d="M699.564 307.749c-23.657-23.657-23.657-64.211 0-87.868 13.518-13.518 27.036-16.898 43.934-16.898s30.416 6.759 43.934 16.898l196.013 196.013c0 0 0 3.38 3.38 3.38v0c0 3.38 0 3.38 3.38 6.759v0c0 3.38 0 3.38 0 6.759v0 3.38c0 3.38 0 3.38 0 6.759s0 3.38 0 6.759v3.38c0 3.38 0 3.38 0 6.759v0c0 3.38 0 3.38-3.38 6.759v0c0 0 0 3.38-3.38 3.38v0c0 0 0 3.38-3.38 3.38v0l-192.634 192.634c-23.657 23.657-64.211 23.657-87.868 0s-23.657-64.211 0-87.868l81.109-81.109h-719.842c-33.795 0-60.832-27.036-60.832-60.832s27.036-60.832 60.832-60.832h719.842l-81.109-67.591zM858.403 960c-168.977 0-327.815-84.488-422.442-226.429-20.277-27.036-10.139-67.591 16.898-87.868s67.591-10.139 84.488 16.898c70.97 104.766 189.254 168.977 317.677 168.977 212.911 0 385.267-172.356 385.267-385.267s-172.356-385.267-385.267-385.267c-128.422 0-246.706 64.211-317.677 168.977-20.277 27.036-57.452 37.175-87.868 16.898-27.036-20.277-37.175-57.452-16.898-87.868 94.627-138.561 253.465-223.050 422.442-223.050 280.502 0 506.931 226.429 506.931 506.931 3.38 287.261-223.050 517.069-503.551 517.069v0z" />
<glyph unicode="&#xe914;" glyph-name="im-pencil" horiz-adv-x="1021" d="M954.34 893.823c-87.075 87.075-233.361 87.075-320.435 0l-585.143-585.143c-3.483-3.483-6.966-10.449-6.966-17.415l-41.796-320.435c0-10.449 3.483-17.415 6.966-24.381 6.966-6.966 13.932-10.449 20.898-10.449h3.483l195.048 27.864c17.415 3.483 27.864 17.415 24.381 34.83s-17.415 27.864-34.83 24.381l-156.735-20.898 31.347 222.912 236.844-236.844c6.966-6.966 13.932-10.449 20.898-10.449s13.932 3.483 20.898 10.449l585.143 585.143c41.796 41.796 66.177 101.007 66.177 160.218s-24.381 118.422-66.177 160.218v0zM647.837 820.68l97.524-97.524-536.381-536.381-97.524 97.524 536.381 536.381zM348.299 50.939l-97.524 97.524 536.381 536.381 97.524-97.524-536.381-536.381zM922.993 625.633l-236.844 236.844c31.347 24.381 66.177 38.313 107.973 38.313 45.279 0 87.075-17.415 118.422-48.762s48.762-73.143 48.762-118.422c0-38.313-13.932-76.626-38.313-107.973v0z" />
<glyph unicode="&#xe915;" glyph-name="im-phone" d="M753.325 343.643c-68.484-68.484-68.484-136.968-136.968-136.968s-136.968 68.484-205.452 136.968c-68.484 68.484-136.968 136.968-136.968 205.452s68.484 68.484 136.968 136.968c68.484 68.484-136.968 273.936-205.452 273.936s-205.452-205.452-205.452-205.452c0-136.968 140.229-414.166 273.936-544.611s407.643-273.936 544.611-273.936c0 0 205.452 136.968 205.452 205.452 0 65.223-205.452 270.675-270.675 202.191z" />
<glyph unicode="&#xe916;" glyph-name="im-printer" horiz-adv-x="973" d="M819.2 749.511h-25.6v59.733c0 82.489-68.267 150.756-150.756 150.756h-318.578c-82.489 0-150.756-68.267-150.756-150.756v-59.733h-22.756c-82.489 0-150.756-68.267-150.756-150.756v-244.622c0-82.489 68.267-150.756 150.756-150.756h22.756v-190.578c0-42.667 34.133-76.8 76.8-76.8h469.333c42.667 0 76.8 34.133 76.8 76.8v190.578h25.6c82.489 0 150.756 68.267 150.756 150.756v244.622c-2.844 82.489-71.111 150.756-153.6 150.756v0zM227.556 806.4c0 51.2 42.667 93.867 93.867 93.867h318.578c51.2 0 93.867-42.667 93.867-93.867v-59.733h-506.311v59.733zM733.867 9.956c0-11.378-8.533-17.067-17.067-17.067h-469.333c-11.378 0-17.067 8.533-17.067 17.067v315.733h506.311v-315.733h-2.844zM913.067 354.133c0-51.2-42.667-93.867-93.867-93.867h-25.6v65.422h36.978c17.067 0 28.444 11.378 28.444 28.444s-11.378 28.444-28.444 28.444h-699.733c-17.067 0-28.444-11.378-28.444-28.444s11.378-28.444 28.444-28.444h42.667v-68.267h-22.756c-51.2 0-93.867 42.667-93.867 93.867v244.622c0 51.2 42.667 93.867 93.867 93.867h671.289c51.2 0 93.867-42.667 93.867-93.867l-2.844-241.778zM298.667 186.311h364.089c17.067 0 28.444 11.378 28.444 28.444s-11.378 28.444-28.444 28.444h-364.089c-17.067 0-28.444-11.378-28.444-28.444s11.378-28.444 28.444-28.444v0zM665.6 126.578h-364.089c-17.067 0-28.444-11.378-28.444-28.444s11.378-28.444 28.444-28.444h364.089c17.067 0 28.444 11.378 28.444 28.444 0 14.222-14.222 28.444-28.444 28.444v0zM819.2 635.733h-56.889c-17.067 0-28.444-11.378-28.444-28.444s11.378-28.444 28.444-28.444h56.889c17.067 0 28.444 11.378 28.444 28.444s-14.222 28.444-28.444 28.444v0z" />
<glyph unicode="&#xe917;" glyph-name="im-search" d="M1000.255 81.438l-225.577 225.577c44.522 65.299 68.267 145.438 68.267 231.513 0 231.513-189.959 421.472-421.472 421.472s-421.472-189.959-421.472-421.472 189.959-421.472 421.472-421.472c86.075 0 166.214 26.713 231.513 68.267l225.577-225.577c32.649-32.649 89.043-32.649 121.693 0 32.649 35.617 32.649 89.043 0 121.693v0zM421.472 265.461c-151.374 0-276.035 124.661-276.035 276.035s124.661 276.035 276.035 276.035 276.035-124.661 276.035-276.035c0-154.342-124.661-276.035-276.035-276.035v0z" />
<glyph unicode="&#xe918;" glyph-name="im-share" d="M864.185 255.63c-44.393 0-85.827-17.757-115.422-50.312l-432.092 216.046c0 8.879 2.96 17.757 2.96 26.636s0 17.757-2.96 26.636l432.092 216.046c29.595-29.595 71.029-50.312 115.422-50.312 88.786 0 159.815 71.029 159.815 159.815s-71.029 159.815-159.815 159.815-159.815-71.029-159.815-159.815c0-8.879 0-17.757 2.96-26.636l-432.092-216.046c-29.595 29.595-71.029 50.312-115.422 50.312-88.786 0-159.815-71.029-159.815-159.815s71.029-159.815 159.815-159.815c44.393 0 85.827 17.757 115.422 50.312l432.092-216.046c0-8.879-2.96-17.757-2.96-26.636 0-88.786 71.029-159.815 159.815-159.815s159.815 71.029 159.815 159.815-71.029 159.815-159.815 159.815z" />
<glyph unicode="&#xe919;" glyph-name="im-user" horiz-adv-x="876" d="M433.404 407.579h6.737c62.877 0 112.281 22.456 150.456 65.123 80.842 92.070 67.368 251.509 67.368 264.982-4.491 114.526-58.386 168.421-103.298 193.123-33.684 17.965-71.86 29.193-114.526 29.193h-4.491c-24.702 0-69.614-4.491-114.526-29.193s-98.807-78.596-105.544-193.123c-2.246-15.719-15.719-172.912 67.368-264.982 38.175-42.667 89.825-62.877 150.456-65.123v0zM273.965 733.193c0 0 0 2.246 0 0 6.737 154.947 114.526 170.667 161.684 170.667h2.246c58.386-2.246 154.947-24.702 161.684-168.421v-2.246c0-2.246 15.719-145.965-51.649-222.316-26.947-29.193-62.877-44.912-110.035-44.912h-2.246c-47.158 0-83.088 15.719-110.035 44.912-65.123 76.351-51.649 222.316-51.649 222.316v0zM875.789 144.842v0c0 2.246 0 4.491 0 6.737-2.246 42.667-4.491 141.474-96.561 172.912h-2.246c-96.561 24.702-175.158 80.842-177.404 80.842-13.474 8.982-31.439 6.737-40.421-6.737s-6.737-31.439 6.737-40.421c4.491-2.246 87.579-60.632 195.368-89.825 49.404-17.965 56.14-69.614 56.14-119.018 0-2.246 0-4.491 0-4.491 0-20.211 0-49.404-4.491-65.123-33.684-20.211-170.667-87.579-375.018-87.579s-341.333 67.368-375.018 87.579c-4.491 17.965-4.491 47.158-4.491 65.123 0 2.246 0 4.491 0 4.491 2.246 49.404 6.737 101.053 56.14 119.018 105.544 26.947 190.877 85.333 195.368 89.825 13.474 8.982 15.719 26.947 6.737 40.421s-26.947 15.719-40.421 6.737c0 0-80.842-56.14-177.404-80.842h-2.246c-92.070-31.439-94.316-130.246-96.561-172.912 0-2.246 0-4.491 0-4.491v0c0-11.228 0-67.368 11.228-96.561 2.246-4.491 6.737-11.228 11.228-13.474 6.737-4.491 159.439-101.053 415.439-101.053s408.702 96.561 415.439 101.053c4.491 2.246 8.982 8.982 11.228 13.474 11.228 26.947 11.228 83.088 11.228 94.316v0z" />
<glyph unicode="&#xe91a;" glyph-name="im-floors" horiz-adv-x="936" d="M929.217 260.972c-71.088 0-143.868 0-214.955 0-15.233 0-15.233 0-15.233-15.233 0-22.003 0-44.007 0-66.010-5.078 0-8.463 0-13.54 0-71.088 0-143.868 0-214.955 0-10.155 0-13.54-3.385-13.54-13.54 0-22.003 0-44.007 0-67.702-5.078 0-10.155 0-13.54 0-71.088 0-140.483 0-211.57 0-18.618 0-16.926 1.693-18.618-18.618 0-16.926 0-33.851 0-50.777 0-3.385 0-6.77 0-10.155-71.088 0-142.175 0-213.263 0v-82.936h255.577c1.693 0 3.385 0 3.385 5.078 0 20.311 0 50.777 0 71.088 0 1.693 3.385 3.385 5.078 5.078 3.385 0 6.77 0 10.155 0 71.088 0 142.175 0 214.955 0 13.54 0 13.54 0 13.54 13.54 0 18.618 0 37.236 0 57.547 0 3.385 0 6.77 0 11.848 81.243 0 160.793 0 242.036 0 0 15.233 0 28.774 0 42.314 0 8.463 0 15.233 0 23.696-1.693 10.155 3.385 11.848 11.848 11.848 59.24 0 120.172 0 179.412 0v82.936c-1.693 1.693-5.078 0-6.77 0zM485.765 724.734c0 25.388-10.155 45.699-37.236 55.855-28.774 8.463-55.855 20.311-84.628 27.081-6.77 1.693-18.618 0-25.388-5.078-10.155-5.078-18.618-13.54-27.081-22.003-25.388-25.388-50.777-52.469-76.165-77.858-11.848-11.848-18.618-23.696-18.618-40.621-1.693-42.314-5.078-84.628-6.77-128.635 0-5.078 0-11.848 1.693-16.926 3.385-18.618 30.466-27.081 47.392-15.233 13.54 10.155 16.926 23.696 16.926 38.929 1.693 30.466 3.385 60.932 6.77 91.398 1.693 10.155 3.385 20.311 10.155 27.081 20.311 22.003 40.621 40.621 62.625 62.625 0-28.774-1.693-54.162-1.693-79.55-3.385-247.114-8.463-143.868-35.544-492.536 0-8.463 10.155-23.696 18.618-28.774 30.466-13.54 66.010 6.77 69.395 38.929 33.851 275.888 35.544 262.347 74.473 379.134 1.693 1.693 5.078 123.557 5.078 186.182zM594.089 448.846c-30.466 16.926-59.24 32.159-89.706 49.084-13.54-28.774-23.696-55.855-27.081-88.013 5.078-3.385 11.848-6.77 16.926-10.155 18.618-8.463 23.696-16.926 20.311-37.236-8.463-52.469-13.54-60.932-22.003-113.402-1.693-11.848-5.078-23.696 3.385-35.544 15.233-23.696 45.699-25.388 64.317-5.078 13.54 13.54 18.618 30.466 22.003 49.084 10.155 67.702 16.926 93.091 27.081 160.793 1.693 15.233-1.693 23.696-15.233 30.466zM500.427 896.372c5.081-39.874-23.125-76.317-62.999-81.397s-76.317 23.125-81.397 62.999c-5.081 39.874 23.125 76.317 62.999 81.397s76.317-23.125 81.397-62.999zM629.633 579.174c-38.929 30.466-79.55 60.932-118.479 91.398-1.693 1.693-3.385 3.385-6.77 5.078 0-23.696 0-49.084-1.693-72.78 5.078-11.848 3.385-11.848 79.55-69.395 16.926-13.54 40.621-10.155 52.469 6.77 10.155 11.848 6.77 28.774-5.078 38.929z" />
<glyph unicode="&#xe91b;" glyph-name="im-furnished" horiz-adv-x="1159" d="M207.495 418.358h153.6c-29.642 59.284-83.537 137.432-169.768 218.274-16.168 16.168-40.421 24.253-64.674 24.253s-48.505-8.084-70.063-26.947c-70.063-56.589-21.558-129.347-5.389-150.905 21.558-26.947 43.116-64.674 64.674-110.484 21.558 26.947 53.895 45.811 91.621 45.811v0zM1115.621 633.937c-21.558 18.863-45.811 26.947-70.063 26.947s-45.811-8.084-64.674-24.253c-88.926-80.842-140.126-158.989-169.768-218.274h153.6c37.726 0 70.063-18.863 91.621-45.811 18.863 45.811 43.116 83.537 64.674 110.484 18.863 21.558 64.674 91.621-5.389 150.905v0zM1034.779 148.884v153.6c0 37.726-29.642 67.368-67.368 67.368h-759.916c-37.726 0-67.368-29.642-67.368-67.368v-153.6c0-37.726 29.642-67.368 67.368-67.368h759.916c35.032 0 67.368 29.642 67.368 67.368v0zM881.179 33.011l10.779-88.926h56.589l10.779 88.926h-78.147zM212.884 33.011l10.779-88.926h56.589l10.779 88.926h-78.147zM759.916 418.358c32.337 70.063 88.926 158.989 191.326 253.305 13.474 13.474 29.642 24.253 48.505 29.642-64.674 142.821-223.663 245.221-412.295 245.221s-347.621-102.4-412.295-245.221c18.863-5.389 35.032-16.168 48.505-29.642 102.4-94.316 158.989-183.242 191.326-253.305h344.926z" />
<glyph unicode="&#xe91c;" glyph-name="im-padded" horiz-adv-x="1386" d="M122.635 257.916l9.198-24.527 15.329 21.461c6.132 9.198 15.329 15.329 24.527 24.527l9.198 9.198-6.132 12.263c-21.461 39.856-58.251 104.24-76.647 128.766-9.198 9.198-27.593 36.79-24.527 61.317 3.066 15.329 12.263 30.659 27.593 42.922 33.725 27.593 76.647 27.593 104.24 3.066 76.647-64.383 156.359-171.689 183.952-223.808l3.066-6.132h58.251l-12.263 21.461c-45.988 91.976-116.503 180.886-205.413 263.665-24.527 21.461-55.186 33.725-85.844 33.725-33.725 0-64.383-12.263-95.042-36.79-76.647-61.317-55.186-144.096-9.198-199.281 30.659-33.725 58.251-79.713 79.713-131.832zM953.485 325.365l-12.263-21.461h64.383l3.066 6.132c30.659 52.12 110.371 156.359 183.952 223.808 27.593 24.527 67.449 24.527 104.24-3.066 15.329-12.263 27.593-27.593 27.593-42.922 3.066-27.593-15.329-52.12-24.527-61.317-18.395-21.461-58.251-91.976-76.647-128.766l-6.132-12.263 9.198-9.198c9.198-6.132 15.329-12.263 21.461-21.461l15.329-21.461 9.198 24.527c21.461 49.054 49.054 95.042 73.581 128.766 45.988 55.186 64.383 137.964-9.198 199.281-30.659 24.527-61.317 36.79-95.042 36.79-30.659 0-61.317-12.263-85.844-33.725-85.844-82.778-156.359-171.689-202.347-263.665zM211.545 138.347c0 36.79 27.593 67.449 61.317 67.449h846.18c33.725 0 61.317-30.659 61.317-67.449v-202.347h61.317c3.066 30.659 3.066 55.186 3.066 64.383v183.952c0 52.12-42.922 95.042-95.042 95.042h-904.431c-52.12 0-95.042-42.922-95.042-95.042v-183.952c0-6.132 0-30.659 3.066-64.383h61.317v202.347h-3.066zM254.467 607.425c101.174-95.042 177.82-193.15 223.808-297.389l3.066-9.198h73.581l-9.198 21.461c-61.317 134.898-128.766 236.072-205.413 306.587-24.527 21.461-42.922 36.79-55.186 45.988 64.383 128.766 226.874 208.479 416.958 208.479 187.018 0 352.575-85.844 416.958-214.611-21.461-12.263-45.988-30.659-55.186-39.856-76.647-73.581-147.162-174.754-208.479-306.587l-9.198-21.461h67.449l3.066 9.198c45.988 104.24 122.635 202.347 223.808 297.389 15.329 15.329 33.725 24.527 52.12 30.659l15.329 6.132-6.132 15.329c-79.713 180.886-282.060 300.455-505.868 300.455-220.743 0-423.090-119.569-505.868-300.455l-6.132-15.329 15.329-6.132c21.461-3.066 39.856-15.329 55.186-30.659z" />
<glyph unicode="&#xe91d;" glyph-name="im-parking" horiz-adv-x="1184" d="M706.606 656.507h-229.357v-159.855h229.357c64.869 0 99.62 27.801 101.937 81.086-4.633 53.285-37.068 78.769-101.937 78.769zM1118.986 960h-1054.118c-37.068 0-64.869-30.118-64.869-64.869v-894.262c0-37.068 30.118-64.869 64.869-64.869h1054.118c37.068 0 64.869 30.118 64.869 64.869v894.262c0 34.751-30.118 64.869-64.869 64.869zM669.538 359.964h-192.29v-310.443h-164.489v748.308h356.778c189.973 0 284.959-71.819 284.959-215.457 0-148.271-94.986-222.407-284.959-222.407z" />
<glyph unicode="&#xe91e;" glyph-name="im-couch" horiz-adv-x="2053" d="M71.111-64h142.222c37.926 0 71.111 30.815 71.111 71.111h1483.852c0-37.926 30.815-71.111 71.111-71.111h142.222c37.926 0 71.111 30.815 71.111 71.111v599.704c0 37.926-30.815 71.111-71.111 71.111h-142.222c-40.296 0-71.111-30.815-71.111-71.111v-388.741h-1483.852v388.741c0 37.926-30.815 71.111-71.111 71.111h-142.222c-40.296 0-71.111-30.815-71.111-71.111v-599.704c0-40.296 30.815-71.111 71.111-71.111v0zM919.704 571.259c26.074 0 49.778-7.111 68.741-18.963v336.593c0 40.296-30.815 71.111-71.111 71.111h-495.407c-40.296 0-71.111-30.815-71.111-71.111v-336.593c21.333 11.852 45.037 18.963 71.111 18.963h497.778zM988.444 431.407c0 37.926-30.815 71.111-71.111 71.111h-493.037c-37.926 0-71.111-30.815-71.111-71.111v-142.222h635.259v142.222zM1626.074 571.259c26.074 0 49.778-7.111 68.741-18.963v336.593c0 40.296-30.815 71.111-71.111 71.111h-495.407c-40.296 0-71.111-30.815-71.111-71.111v-336.593c21.333 11.852 45.037 18.963 71.111 18.963h497.778zM1694.815 431.407c0 37.926-30.815 71.111-71.111 71.111h-493.037c-37.926 0-71.111-30.815-71.111-71.111v-142.222h635.259v142.222z" />
<glyph unicode="&#xe91f;" glyph-name="im-hand" horiz-adv-x="693" d="M674.080 492.008c-15.027 12.881-63.329 22.541-113.778 30.055v296.252c0 49.375-38.642 89.090-84.797 89.090-17.174 0-32.201-5.367-45.082-13.954-9.66 38.642-42.935 66.549-83.723 66.549-47.229 0-85.87-39.715-85.87-89.090v-182.474c-13.954 8.587-28.981 13.954-46.155 13.954-25.761 0-48.302-11.807-64.403-30.055-16.101 18.247-38.642 30.055-64.403 30.055-46.155 0-83.723-37.568-85.87-84.797v-374.608c0-181.4 142.759-306.985 346.7-306.985s346.7 126.658 346.7 306.985v213.602c-2.147 13.954-12.881 28.981-19.321 35.421v0zM474.432 864.47c23.614 0 42.935-20.394 42.935-46.155v-290.885c-18.247 2.147-35.421 4.294-49.375 5.367-13.954 2.147-25.761 1.073-36.495 0v246.876l1.073 4.294v37.568c2.147 23.614 19.321 42.935 41.862 42.935v0zM213.602 659.455c24.688 0 44.008-21.468 44.008-46.155v-141.686c-2.147-23.614-20.394-41.862-42.935-41.862-23.614 0-41.862 19.321-44.008 44.008v143.832l-1.073 3.22c4.294 20.394 21.468 38.642 44.008 38.642v0zM84.797 659.455c22.541 0 39.715-18.247 42.935-40.788l-1.073-6.44v-147.052c-4.294-20.394-21.468-37.568-41.862-37.568-24.688 0-44.008 21.468-44.008 46.155v137.392c0 27.908 19.321 48.302 44.008 48.302v0zM649.392 242.985c0-155.639-125.585-265.124-303.765-265.124-179.254 0-303.765 109.484-303.765 265.124v156.713c12.881-8.587 27.908-12.881 44.008-12.881 25.761 0 49.375 11.807 64.403 31.128 16.101-18.247 38.642-31.128 65.476-31.128 47.229 0 85.87 39.715 85.87 89.090v65.476l1.073 2.147v327.379c0 25.761 19.321 46.155 44.008 46.155s44.008-20.394 44.008-46.155v-45.082l-1.073-8.587v-299.472c-16.101-9.66-24.688-24.688-30.055-38.642-16.101-45.082 7.514-95.53 55.816-112.704l135.245-37.568c11.807-3.22 22.541 3.22 25.761 15.027 3.22 10.734-3.22 22.541-15.027 25.761l-133.099 36.495c-24.688 8.587-37.568 34.348-28.981 57.962 2.147 4.294 4.294 12.881 15.027 18.247l7.514 3.22c9.66 3.22 22.541 4.294 40.788 2.147 77.283-7.514 168.52-20.394 182.474-30.055l3.22-3.22 1.073-211.455z" />
<glyph unicode="&#xe920;" glyph-name="im-house" horiz-adv-x="1098" d="M1077.839 497.616l-165.74 165.74v192.132c0 34.837-28.503 63.34-63.34 63.34s-63.34-28.503-63.34-63.34v-66.507l-123.513 123.513c-61.229 61.229-167.852 61.229-229.080 0l-415.934-415.934c-24.28-24.28-24.28-64.396 0-88.676s64.396-24.28 88.676 0l415.934 415.934c13.724 13.724 36.948 13.724 50.672 0l415.934-415.934c12.668-12.668 28.503-17.946 44.338-17.946s31.67 6.334 44.338 17.946c26.392 25.336 26.392 65.452 1.056 89.732v0zM570.062 704.528c-11.612 11.612-31.67 11.612-43.282 0l-365.262-365.262c-5.278-5.278-9.501-13.724-9.501-22.169v-267.085c0-62.285 50.672-112.957 112.957-112.957h180.52v280.808h204.8v-280.808h180.52c62.285 0 112.957 50.672 112.957 112.957v267.085c0 8.445-3.167 15.835-9.501 22.169l-364.206 365.262z" />
<glyph unicode="&#xe921;" glyph-name="im-smile" d="M512 960c-282.725 0-512-229.275-512-512s229.275-512 512-512 512 229.275 512 512c0 281.319-230.681 512-512 512v0zM512-9.143c-125.187 0-239.121 50.637-322.11 133.626-32.352 32.352-60.484 70.33-82.989 112.527-33.758 63.297-52.044 135.033-52.044 210.989 0 251.78 205.363 457.143 457.143 457.143 119.56 0 227.868-46.418 309.451-120.967 42.198-39.385 77.363-85.802 102.681-137.846 28.132-59.077 45.011-126.593 45.011-196.923-1.407-253.187-205.363-458.549-457.143-458.549v0zM399.473 561.934c0-30.945-25.319-54.857-54.857-54.857-30.945 0-54.857 25.319-54.857 54.857 0 30.945 25.319 54.857 54.857 54.857s54.857-23.912 54.857-54.857v0zM742.681 561.934c0-30.945-25.319-54.857-54.857-54.857-30.945 0-54.857 25.319-54.857 54.857 0 30.945 25.319 54.857 54.857 54.857s54.857-23.912 54.857-54.857v0zM510.593 163.868c106.901 0 209.582 54.857 268.659 146.286l-46.418 29.538c-53.451-82.989-153.319-129.407-251.78-118.154-77.363 8.44-147.692 53.451-189.89 118.154l-46.418-29.538c50.637-78.769 137.846-132.22 230.681-143.473 11.253-1.407 22.505-2.813 35.165-2.813v0z" />
</font>
</defs>
</svg>
