<?xml version="1.0" encoding="utf-8"?>
<!-- Generator: Adobe Illustrator 22.0.1, SVG Export Plug-In . SVG Version: 6.00 Build 0)  -->
<svg version="1.1" id="Layer_1" xmlns="http://www.w3.org/2000/svg" xmlns:xlink="http://www.w3.org/1999/xlink" x="0px" y="0px"
	 viewBox="0 0 549.7 129.7" style="enable-background:new 0 0 549.7 129.7;" xml:space="preserve">
<style type="text/css">
	.st0{fill:#384797;}
	.st1{fill:#384895;}
</style>
<g>
	<path class="st0" d="M179.9,81.6c0,2-0.1,2.8-0.6,3.8c-0.7,1.2-2.1,2.1-3.8,2.1c-1.7,0-3.1-0.8-3.8-2.1c-0.5-1.1-0.6-1.8-0.6-3.8
		V48.2c0-2,0.1-2.8,0.6-3.8c0.7-1.2,2.1-2.1,3.8-2.1c1.7,0,3.1,0.8,3.8,2.1c0.5,1.1,0.6,1.8,0.6,3.8V81.6z"/>
	<path class="st0" d="M205.9,75.7l-7.3-14.3v20.2c0,2-0.1,2.8-0.6,3.8c-0.7,1.2-2.1,2.1-3.8,2.1s-3.1-0.8-3.8-2.1
		c-0.5-1.1-0.6-1.8-0.6-3.8V47.7c0-1.9,0.3-3.2,1.3-4.2c0.8-0.8,1.8-1.2,3-1.2c1,0,1.8,0.2,2.6,0.7c0.9,0.6,1.7,1.6,2.2,2.7
		L210.1,67l11.2-21.3c0.6-1.1,1.4-2.1,2.2-2.7c0.8-0.5,1.6-0.7,2.6-0.7c1.2,0,2.2,0.4,3,1.2c1.1,1.1,1.3,2.3,1.3,4.2v33.9
		c0,2-0.1,2.8-0.6,3.8c-0.7,1.2-2.1,2.1-3.8,2.1c-1.7,0-3.1-0.8-3.8-2.1c-0.5-1.1-0.6-1.8-0.6-3.8V61.3l-7.3,14.3
		c-1.1,2.2-2.1,3.1-4.2,3.1C208.1,78.7,207,77.8,205.9,75.7z"/>
	<path class="st0" d="M256.5,75.7l-7.3-14.3v20.2c0,2-0.1,2.8-0.6,3.8c-0.7,1.2-2.1,2.1-3.8,2.1c-1.7,0-3.1-0.8-3.8-2.1
		c-0.5-1.1-0.6-1.8-0.6-3.8V47.7c0-1.9,0.2-3.2,1.3-4.2c0.8-0.8,1.8-1.2,3-1.2c1,0,1.8,0.2,2.6,0.7c0.9,0.6,1.7,1.6,2.2,2.7
		L260.7,67l11.2-21.3c0.6-1.1,1.3-2.1,2.2-2.7c0.8-0.5,1.6-0.7,2.6-0.7c1.2,0,2.2,0.4,3,1.2c1.1,1.1,1.3,2.3,1.3,4.2v33.9
		c0,2-0.1,2.8-0.6,3.8c-0.7,1.2-2.1,2.1-3.8,2.1s-3.1-0.8-3.8-2.1c-0.5-1.1-0.6-1.8-0.6-3.8V61.3l-7.3,14.3
		c-1.1,2.2-2.1,3.1-4.2,3.1C258.6,78.7,257.6,77.8,256.5,75.7z"/>
	<path class="st0" d="M294,82.9c-4.4-4.4-4.6-9.5-4.6-18s0.2-13.6,4.6-18c3-3,6.8-4.7,12-4.7c5.2,0,9,1.7,12,4.7
		c4.4,4.4,4.6,9.5,4.6,18s-0.2,13.6-4.6,18c-3,3-6.8,4.7-12,4.7C300.8,87.6,297,85.9,294,82.9z M300.4,52.3c-1.7,1.9-2.2,4-2.2,12.6
		s0.5,10.6,2.2,12.5c1.3,1.4,3.2,2.4,5.6,2.4c2.4,0,4.4-1,5.6-2.4c1.7-1.9,2.2-4,2.2-12.5s-0.5-10.7-2.2-12.6
		c-1.3-1.4-3.2-2.4-5.6-2.4C303.6,49.9,301.6,50.9,300.4,52.3z"/>
	<path class="st0" d="M339.8,81.6c0,2-0.1,2.8-0.6,3.8c-0.7,1.2-2.1,2.1-3.8,2.1s-3.1-0.8-3.8-2.1c-0.5-1.1-0.6-1.8-0.6-3.8V47.9
		c0-1.3,0-2.9,1.2-4.1c1.2-1.2,2.8-1.2,4.1-1.2h12.2c9.1,0,14.5,6.2,14.5,13.7c0,5.3-3,9.7-8.1,11.8l6.7,11.6c1,1.8,1.3,2.5,1.4,3.5
		c0.1,1.4-0.7,2.8-2.2,3.6c-0.8,0.4-1.5,0.7-2.3,0.7c-2.4,0-3.3-1.6-4.4-3.6l-8.3-14.5h-6.1V81.6z M348.1,62.1
		c3.8,0,6.3-2.4,6.3-5.9c0-3.5-2.5-5.9-6.3-5.9h-8.3v11.8H348.1z"/>
	<path class="st0" d="M372.9,86c-1.2-1.2-1.2-2.8-1.2-4.1v-34c0-1.3,0-2.9,1.2-4.1c1.2-1.2,2.8-1.2,4.1-1.2h19.2
		c1.9,0,2.6,0.1,3.4,0.5c1.1,0.6,1.9,1.9,1.9,3.4c0,1.5-0.8,2.8-1.9,3.4c-0.8,0.4-1.6,0.5-3.4,0.5h-15.7v10.5h12.7
		c1.9,0,2.6,0.1,3.4,0.5c1.1,0.6,1.9,1.9,1.9,3.4s-0.8,2.8-1.9,3.4c-0.8,0.4-1.6,0.5-3.4,0.5h-12.7v10.9h15.7c1.9,0,2.6,0.1,3.4,0.5
		c1.1,0.6,1.9,1.9,1.9,3.4c0,1.5-0.8,2.8-1.9,3.4c-0.8,0.4-1.6,0.5-3.4,0.5H377C375.7,87.2,374.1,87.2,372.9,86z"/>
	<path class="st0" d="M441.8,80.5c0.8,2.3,1.3,3.9-0.2,5.6c-0.8,0.9-2,1.4-3.1,1.4c-1,0-1.8-0.3-2.4-0.8c-0.8-0.6-1.1-1.3-1.9-3.3
		l-1.5-4.1h-17.5l-1.5,4.1c-0.8,2-1.1,2.7-1.9,3.3c-0.7,0.5-1.4,0.8-2.4,0.8c-1.2,0-2.3-0.5-3.1-1.4c-1.6-1.7-1.1-3.4-0.2-5.6
		L419,46.3c0.6-1.6,1.1-2.4,1.8-3c0.8-0.8,1.8-1.1,3.1-1.1c1.3,0,2.3,0.3,3.1,1.1c0.7,0.6,1.2,1.3,1.8,3L441.8,80.5z M418,72h12
		l-6-16.2L418,72z"/>
	<path class="st0" d="M450,86c-1.2-1.2-1.2-2.8-1.2-4.1V48.2c0-2,0.1-2.8,0.6-3.8c0.7-1.2,2.1-2.1,3.8-2.1s3.1,0.8,3.8,2.1
		c0.5,1.1,0.6,1.8,0.6,3.8v31.3h15.2c1.9,0,2.6,0.1,3.4,0.5c1.1,0.6,1.9,1.9,1.9,3.4c0,1.5-0.8,2.8-1.9,3.4
		c-0.8,0.4-1.6,0.5-3.4,0.5h-18.7C452.8,87.2,451.2,87.2,450,86z"/>
	<path class="st0" d="M488.1,87.4c-3,0-5.5-2.4-5.5-5.5c0-3,2.5-5.5,5.5-5.5c3,0,5.5,2.5,5.5,5.5C493.7,85,491.2,87.4,488.1,87.4z"
		/>
	<path class="st0" d="M510.7,81.6c0,2-0.1,2.8-0.6,3.8c-0.7,1.2-2.1,2.1-3.8,2.1c-1.7,0-3.1-0.8-3.8-2.1c-0.5-1.1-0.6-1.8-0.6-3.8
		V48.2c0-2,0.1-2.8,0.6-3.8c0.7-1.2,2.1-2.1,3.8-2.1c1.7,0,3.1,0.8,3.8,2.1c0.5,1.1,0.6,1.8,0.6,3.8V81.6z"/>
	<path class="st0" d="M537.8,50.3v31.3c0,2-0.1,2.8-0.6,3.8c-0.7,1.2-2.1,2.1-3.8,2.1c-1.7,0-3.1-0.8-3.8-2.1
		c-0.5-1.1-0.6-1.8-0.6-3.8V50.3h-6.6c-1.9,0-2.6-0.1-3.4-0.5c-1.1-0.6-1.9-1.9-1.9-3.4c0-1.5,0.8-2.8,1.9-3.4
		c0.8-0.4,1.6-0.5,3.4-0.5h22c1.9,0,2.6,0.1,3.4,0.5c1.1,0.6,1.9,1.9,1.9,3.4c0,1.5-0.8,2.8-1.9,3.4c-0.8,0.4-1.6,0.5-3.4,0.5H537.8
		z"/>
</g>
<g>
	<path class="st1" d="M106.1,53.5c0-5-1.6-7.3-5.4-10.5c-9-7.7-17.9-15.8-26.7-23.6c-3.2-2.8-6.1-4.2-9.1-4.1c-3,0-5.9,1.3-9.1,4.1
		C47,27.2,38,35.2,29.1,42.9c-3.8,3.2-5.4,5.5-5.4,10.5c0,10.2,0,22,0,32.2c0,11.3,7,18.3,18.3,18.3c7.6,0,15.3,0,22.9,0
		c0,0,0,0,0,0s0,0,0,0c7.6,0,15.3,0,22.9,0c11.3,0,18.2-7,18.3-18.3C106.1,75.4,106.1,63.7,106.1,53.5z M64.9,96.1l-14.7,0v-27
		l11.2,16.8c0.9,1.3,1.9,2.1,3.4,2.1c1.5,0,2.6-0.8,3.4-2.1l11.3-17v27.2L64.9,96.1z M98.1,86.6c0,5.8-3.5,9.4-9.2,9.6l-1.3,0V58
		c0-2.2-1.8-4.1-4.1-4.1h-0.9c-1.6,0-2.8,0.7-3.7,2.1L64.9,78l-14-21.9c-0.8-1.3-2-2.2-3.8-2.2h-0.9c-2.3,0-4.1,1.8-4.1,4.1v38.1
		l-1.3,0c-5.8-0.2-9.2-3.8-9.2-9.6c-0.1-15,0-26.4,0-33.1c0-1.4,0.4-2.6,1.5-3.6c9.5-8.5,19.2-17.1,28.8-25.5c1-0.9,1.9-1.3,2.9-1.3
		c1,0,1.9,0.4,2.9,1.3c9.6,8.4,19.3,17,28.8,25.5c1.1,1,1.5,2.1,1.5,3.6C98.1,60.2,98.2,71.6,98.1,86.6z"/>
	<path class="st1" d="M64.9,0C29.1,0,0,29.1,0,64.9s29.1,64.9,64.9,64.9c35.8,0,64.9-29.1,64.9-64.9S100.6,0,64.9,0z M64.9,121.9
		c-31.5,0-57-25.6-57-57c0-31.5,25.6-57,57-57s57,25.6,57,57C121.9,96.3,96.3,121.9,64.9,121.9z"/>
</g>
</svg>
